<svg
  xmlns="http://www.w3.org/2000/svg"
  xmlns:xlink="http://www.w3.org/1999/xlink"
  role="img"
  width="147"
  height="32"
  preserveAspectRatio="xMidYMid meet"
  viewBox="0 0 147 32"
>
  <path d="M117.192 2.73535C117.291 2.47976 117.337 2.20656 117.326 1.9326C117.341 1.66801 117.297 1.40346 117.197 1.15794C117.097 0.91243 116.944 0.692049 116.749 0.512626C116.374 0.1833 115.892 0.00119488 115.393 0.000113218C114.914 -0.00523322 114.451 0.178963 114.107 0.512626C113.712 0.830421 113.528 1.30436 113.528 1.9326C113.514 2.20715 113.558 2.48161 113.658 2.7378C113.758 2.99399 113.911 3.22608 114.107 3.4187C114.451 3.75822 114.91 3.9551 115.393 3.96979C115.897 3.95693 116.379 3.76102 116.749 3.4187C116.942 3.2235 117.092 2.99094 117.192 2.73535ZM114.138 7.57759V23.1422L116.711 23.1385V7.57759H114.138ZM69.6615 23.1421V1.12245H72.3385V23.1421H69.6615ZM4.7367 23.1403H0V1.12433H5.1446L15.092 16.3087V1.12433H19.8269V23.1403H14.6492L4.72752 8.39503L4.7367 23.1403ZM39.4773 23.1403L46.9535 1.12433H52.7045L60.8568 23.1403H55.5138L54.1248 19.1504H45.9393L44.7212 23.1403H39.4773ZM47.0215 15.4251H52.9011L49.761 5.92432L47.0215 15.4251ZM26.5649 17.2596C27.9907 18.2121 29.6671 18.7205 31.382 18.7205C33.6808 18.7181 35.8847 17.804 37.5102 16.1789C39.1357 14.5537 40.05 12.3502 40.0524 10.0519C40.0524 8.33742 39.5439 6.66143 38.5912 5.23588C37.6385 3.81033 36.2843 2.69925 34.7 2.04315C33.1157 1.38704 31.3723 1.21537 29.6904 1.54985C28.0085 1.88433 26.4636 2.70994 25.251 3.92227C24.0384 5.1346 23.2126 6.6792 22.8781 8.36075C22.5435 10.0423 22.7152 11.7853 23.3715 13.3693C24.0277 14.9532 25.139 16.3071 26.5649 17.2596ZM29.1362 6.68984C29.801 6.24578 30.5825 6.00876 31.382 6.00876C32.454 6.00876 33.4822 6.43454 34.2402 7.19243C34.9983 7.95033 35.4241 8.97825 35.4241 10.0501C35.4241 10.8494 35.1871 11.6307 34.7429 12.2953C34.2987 12.9599 33.6674 13.4779 32.9288 13.7838C32.1902 14.0896 31.3775 14.1697 30.5934 14.0137C29.8093 13.8578 29.089 13.4729 28.5237 12.9077C27.9584 12.3425 27.5734 11.6224 27.4174 10.8385C27.2615 10.0546 27.3415 9.24199 27.6475 8.50353C27.9534 7.76508 28.4715 7.13391 29.1362 6.68984ZM92.057 9.5302C92.1871 9.53883 92.3166 9.55539 92.4447 9.5798L92.6119 6.99887C92.4796 6.97683 92.3639 6.96029 92.2646 6.94927C92.1333 6.93677 92.0015 6.93125 91.8696 6.93274C91.4028 6.92696 90.9394 7.01374 90.5063 7.18808C90.1028 7.35341 89.7224 7.57012 89.3745 7.83285C89.0533 8.07192 88.7621 8.34885 88.5072 8.65765C88.2974 8.9116 88.1128 9.18538 87.956 9.47509C87.4322 8.7715 86.7465 8.20442 85.957 7.82183C85.0772 7.37597 84.1027 7.1491 83.1164 7.16052C82.2505 7.15381 81.3907 7.30508 80.5791 7.6069C79.8166 7.88973 79.1155 8.31627 78.5139 8.86339C77.923 9.40912 77.4519 10.0715 77.1303 10.8087C76.7841 11.6148 76.6125 12.485 76.6269 13.3621C76.6129 14.0839 76.7376 14.8017 76.9944 15.4765C77.4483 16.636 78.2699 17.6149 79.3333 18.2631C79.8265 18.5723 80.3601 18.8115 80.919 18.974C80.2461 19.121 79.6313 19.4628 79.1514 19.9568C78.7069 20.417 78.463 21.0347 78.4735 21.6744C78.468 22.2271 78.6684 22.762 79.0357 23.1752C79.4118 23.6111 79.9137 23.9198 80.4725 24.0587C79.84 24.0952 79.215 24.2138 78.6131 24.4114C78.079 24.5862 77.581 24.8563 77.1432 25.2087C76.7387 25.5365 76.4071 25.945 76.1694 26.4082C75.9265 26.8917 75.8042 27.4268 75.813 27.9678C75.7983 29.2426 76.3887 30.2334 77.5842 30.94C78.7797 31.6466 80.5723 31.9999 82.9621 31.9999C85.6447 32.0061 87.7209 31.5162 89.1907 30.5304C90.6606 29.5445 91.3956 28.2556 91.3956 26.6635C91.3992 25.4585 90.9583 24.5057 90.0727 23.8052C89.1871 23.1047 87.9481 22.7545 86.3557 22.7545H82.523C81.2895 22.7557 80.6728 22.1948 80.6728 21.0718C80.6728 20.3958 80.9226 19.9476 81.4077 19.7235C81.9472 19.486 82.5219 19.3383 83.1091 19.2863C85.2809 19.0549 86.8732 18.4548 87.8862 17.4861C88.8992 16.5174 89.4057 15.0748 89.4057 13.1582C89.418 12.6635 89.3648 12.1694 89.2477 11.6886C89.1196 11.2584 88.9452 10.8433 88.7277 10.4505C89.0597 10.2435 89.4018 10.0535 89.753 9.88106C90.3211 9.61655 90.9439 9.49064 91.5701 9.51367C91.7465 9.51367 91.9082 9.51918 92.057 9.5302ZM79.3352 25.4052C79.9133 24.9974 80.764 24.7935 81.8873 24.7935L84.7995 24.7917C86.1591 24.7917 87.139 24.9852 87.7392 25.3722C88.3394 25.7592 88.6395 26.3715 88.6395 27.2091C88.6395 28.1974 88.2157 28.9065 87.3681 29.3363C86.5205 29.7662 85.1602 29.9811 83.2873 29.9811C82.5298 29.9917 81.7728 29.9401 81.0237 29.8268C80.5141 29.7546 80.0185 29.6054 79.5538 29.3841C79.2049 29.2143 78.9187 28.9385 78.7362 28.596C78.5573 28.2246 78.4698 27.8159 78.4808 27.4038C78.4722 26.4792 78.757 25.813 79.3352 25.4052ZM85.8339 16.2663C85.1859 16.9301 84.2673 17.262 83.0779 17.262H83.0834C81.867 17.2669 80.9147 16.9368 80.2263 16.2719C79.5379 15.6069 79.1937 14.6008 79.1937 13.2537C79.1961 11.925 79.5459 10.9183 80.2428 10.2338C80.9398 9.54919 81.9007 9.2069 83.1256 9.2069C85.5754 9.2069 86.8003 10.554 86.8003 13.2482C86.804 14.5965 86.4819 15.6026 85.8339 16.2663ZM106.611 12.8349C106.612 12.3695 106.536 11.9071 106.387 11.4664C106.246 11.0447 106.028 10.6532 105.742 10.3128C105.445 9.96814 105.076 9.69337 104.661 9.50818C104.167 9.29216 103.63 9.18744 103.09 9.20141C102.382 9.18535 101.684 9.36322 101.069 9.71576C100.497 10.0517 100.002 10.5035 99.6142 11.042C99.2178 11.5987 98.9218 12.2204 98.7396 12.879C98.549 13.5401 98.4513 14.2245 98.4493 14.9125V23.144H95.877V10.7867C95.877 10.4561 95.8604 9.97967 95.8273 9.35755C95.7943 8.73543 95.7557 8.14332 95.7116 7.58121H98.2233C98.2498 7.77556 98.2664 7.97115 98.2729 8.1672C98.2729 8.35044 98.283 8.54104 98.2935 8.73834C98.2978 8.81992 98.3022 8.90265 98.3059 8.98648C98.3188 9.27305 98.3225 9.56697 98.3225 9.87006V10.6544H98.486C98.6798 10.1964 98.9418 9.77027 99.2632 9.39062C99.6121 8.97086 100.012 8.59629 100.454 8.27558C100.915 7.93959 101.421 7.66999 101.957 7.47467C102.539 7.26478 103.155 7.16089 103.774 7.16789C104.494 7.16193 105.21 7.27107 105.896 7.4912C106.533 7.69473 107.117 8.03591 107.607 8.49051C108.118 8.98203 108.51 9.58313 108.755 10.2485C109.051 11.0834 109.19 11.966 109.165 12.8515V23.1385H106.611V12.8349ZM123.099 7.57752V4.32793L125.672 3.99728V7.57752H130.331V9.6092H125.675V18.9244C125.673 19.266 125.7 19.6072 125.758 19.944C125.808 20.2383 125.918 20.5191 126.081 20.7688C126.25 21.0183 126.484 21.2166 126.757 21.3419C127.109 21.4939 127.49 21.566 127.873 21.5531C128.277 21.5676 128.681 21.5199 129.071 21.4117C129.365 21.3124 129.645 21.1767 129.905 21.0076L130.335 22.9474C129.959 23.1317 129.566 23.2799 129.163 23.3901C128.656 23.5263 128.134 23.5918 127.61 23.5848C126.298 23.5848 125.218 23.2438 124.371 22.5616C123.523 21.8795 123.099 20.751 123.099 19.1761V9.61287H120.637V7.57752H123.099ZM137.175 20.1056C136.272 19.159 135.799 17.6772 135.755 15.6602H146.966C146.988 15.4988 146.999 15.3362 146.999 15.1734V14.6866C147.009 13.6755 146.873 12.6683 146.595 11.696C146.35 10.8315 145.944 10.0212 145.397 9.30798C144.862 8.62535 144.168 8.08368 143.376 7.73003C142.481 7.3389 141.511 7.1471 140.534 7.16793C139.526 7.15836 138.527 7.34944 137.594 7.73003C136.708 8.09261 135.91 8.64211 135.255 9.34105C134.572 10.0885 134.052 10.97 133.728 11.9293C133.348 13.046 133.161 14.2197 133.177 15.3994C133.172 16.4644 133.322 17.5245 133.624 18.5461C133.897 19.4969 134.357 20.3837 134.978 21.1546C135.602 21.9124 136.394 22.5149 137.291 22.9144C138.343 23.3676 139.482 23.5876 140.628 23.5591C141.612 23.5841 142.593 23.431 143.523 23.1072C144.196 22.8666 144.83 22.5273 145.403 22.1006C145.953 21.7089 146.405 21.1952 146.724 20.5998L144.412 19.4278C144.213 19.8242 143.938 20.1774 143.602 20.4675C143.238 20.7698 142.832 21.0173 142.397 21.2023C141.825 21.4339 141.211 21.544 140.594 21.5256C139.957 21.5433 139.322 21.426 138.733 21.1813C138.144 20.9365 137.613 20.57 137.175 20.1056ZM137.276 10.4506C138.071 9.61782 139.112 9.20144 140.4 9.20144C141.006 9.18555 141.607 9.30938 142.158 9.56332C142.623 9.78977 143.028 10.1227 143.339 10.5351C143.645 10.9421 143.877 11.3997 144.025 11.8871C144.171 12.3634 144.246 12.8585 144.249 13.3566V13.6267H135.889C136.019 12.342 136.481 11.2833 137.276 10.4506Z" />,
  <title>NoA Ignite</title>
</svg>
